<?xml version="1.0" encoding="UTF-8"?>
<svg version="1.1" xmlns="http://www.w3.org/2000/svg" width="100" height="100">
<path d="M0 0 C8.64822802 6.87119486 15.44311132 18.01837448 17 29 C18.40895106 46.55709566 15.56638733 59.95954698 4.4140625 73.99609375 C-3.81286908 83.00558711 -15.56118495 88.6401856 -27.6484375 89.3125 C-44.13318085 89.87527929 -57.29779856 86.1831071 -69.75 74.8125 C-80.88341536 62.87619411 -83.80272194 49.59143924 -83.34375 33.85546875 C-82.66010765 21.18611097 -76.33281061 9.26446012 -67.0703125 0.625 C-46.64754218 -15.40494803 -20.73790664 -15.44661826 0 0 Z M-42.875 -4.1875 C-43.63554688 -4.03667969 -44.39609375 -3.88585937 -45.1796875 -3.73046875 C-45.78039062 -3.48941406 -46.38109375 -3.24835937 -47 -3 C-48.33728333 -0.06644576 -48.33728333 -0.06644576 -47.00390625 2.48046875 C-46.52824219 3.37378906 -46.05257812 4.26710938 -45.5625 5.1875 C-45.08941406 6.08855469 -44.61632812 6.98960938 -44.12890625 7.91796875 C-43.75636719 8.60503906 -43.38382813 9.29210938 -43 10 C-46.04995952 11.77653179 -48.11408131 12.21407978 -51.625 12.0546875 C-52.93210937 12.01794922 -52.93210937 12.01794922 -54.265625 11.98046875 C-56.08885925 11.910144 -57.91180915 11.83201471 -59.734375 11.74609375 C-64.89289698 11.53678531 -64.89289698 11.53678531 -69.453125 13.63671875 C-71.21682358 16.33125825 -72.53119678 18.95444149 -73.75 21.9375 C-74.17796875 22.95714844 -74.6059375 23.97679688 -75.046875 25.02734375 C-75.96708999 27.89735853 -76.19792909 30.01456956 -76 33 C-75.34515625 32.56429687 -74.6903125 32.12859375 -74.015625 31.6796875 C-55.53791062 19.62219592 -55.53791062 19.62219592 -47 19 C-44.8190918 19.98681641 -44.8190918 19.98681641 -43 21 C-43.20157715 21.61407715 -43.4031543 22.2281543 -43.61083984 22.86083984 C-44.53811926 25.69700463 -45.4565913 28.53595087 -46.375 31.375 C-46.69210938 32.34050781 -47.00921875 33.30601563 -47.3359375 34.30078125 C-50.67062479 44.65220639 -52.33464757 53.98367937 -52.25 64.875 C-52.25773437 65.89335938 -52.26546875 66.91171875 -52.2734375 67.9609375 C-52.26957031 69.43046875 -52.26957031 69.43046875 -52.265625 70.9296875 C-52.26336914 71.80866699 -52.26111328 72.68764648 -52.25878906 73.59326172 C-51.97862717 76.19876732 -51.42564684 77.8089093 -50 80 C-40.07480369 84.20878578 -29.18818868 84.00815054 -19 81 C-18.34 80.67 -17.68 80.34 -17 80 C-15.77529362 60.43871754 -22.59414827 42.32213431 -32.09375 25.48828125 C-33 23 -33 23 -32.28125 20.73046875 C-31 19 -31 19 -29 18 C-15.32249293 19.31862544 -2.87892366 26.69122369 6 37 C7.41624721 38.95863976 8.70479251 40.95755742 10 43 C10.33 43 10.66 43 11 43 C11.56966216 31.60675673 9.09128813 21.13718544 2 12 C-0.59494515 9.30317479 -1.88643172 9.0111884 -5.6875 8.63671875 C-7.12509931 8.63571624 -8.56280121 8.65355292 -10 8.6875 C-10.75313477 8.69442871 -11.50626953 8.70135742 -12.28222656 8.70849609 C-17.818399 8.81799504 -23.08063618 9.50723294 -28.484375 10.7578125 C-31 11 -31 11 -36 9 C-34.35 4.38 -32.7 -0.24 -31 -5 C-37.08454777 -5.03692837 -37.08454777 -5.03692837 -42.875 -4.1875 Z " fill="#4899E4" transform="translate(83,11)"/>
</svg>
