<svg width="1004" height="570" viewBox="0 0 1004 570" fill="none" xmlns="http://www.w3.org/2000/svg">
<g clip-path="url(#clip0_108_2)">
<path d="M297.12 495.175H291.59V333.489C291.59 322.188 282.395 312.994 271.094 312.994H31.6558C20.3547 312.994 11.1604 322.188 11.1604 333.489V495.175H5.62986C2.93488 495.175 0.75 497.36 0.75 500.055V510.466C0.75 518.897 7.60913 525.756 16.0402 525.756H286.71C295.141 525.756 302 518.897 302 510.466V500.055C302 497.36 299.815 495.175 297.12 495.175ZM20.9201 333.489C20.9201 327.57 25.7362 322.754 31.6558 322.754H271.094C277.014 322.754 281.83 327.57 281.83 333.489V495.175H20.9201V333.489ZM292.24 510.466C292.24 513.515 289.759 515.996 286.71 515.996H16.0402C12.9906 515.996 10.5097 513.515 10.5097 510.466V504.935H120.485C120.478 505.043 120.469 505.151 120.469 505.26C120.469 507.955 122.654 510.14 125.349 510.14H177.401C180.096 510.14 182.281 507.955 182.281 505.26C182.281 505.151 182.272 505.043 182.265 504.935H292.24V510.466Z" fill="url(#paint0_linear_108_2)"/>
<path d="M265.889 333.815H36.8613C34.1663 333.815 31.9814 336 31.9814 338.695V479.235C31.9814 481.93 34.1663 484.115 36.8613 484.115H265.889C268.584 484.115 270.769 481.93 270.769 479.235V338.695C270.769 336 268.584 333.815 265.889 333.815ZM261.009 474.355H41.7412V343.575H261.009V474.355Z" fill="url(#paint1_linear_108_2)"/>
</g>
<g clip-path="url(#clip1_108_2)">
<path d="M998.37 495.175H992.84V333.489C992.84 322.188 983.645 312.994 972.344 312.994H732.906C721.605 312.994 712.41 322.188 712.41 333.489V495.175H706.88C704.185 495.175 702 497.36 702 500.055V510.466C702 518.897 708.859 525.756 717.29 525.756H987.96C996.391 525.756 1003.25 518.897 1003.25 510.466V500.055C1003.25 497.36 1001.07 495.175 998.37 495.175ZM722.17 333.489C722.17 327.57 726.986 322.754 732.906 322.754H972.344C978.264 322.754 983.08 327.57 983.08 333.489V495.175H722.17V333.489ZM993.49 510.466C993.49 513.515 991.009 515.996 987.96 515.996H717.29C714.241 515.996 711.76 513.515 711.76 510.466V504.935H821.735C821.728 505.043 821.719 505.151 821.719 505.26C821.719 507.955 823.904 510.14 826.599 510.14H878.651C881.346 510.14 883.531 507.955 883.531 505.26C883.531 505.151 883.522 505.043 883.515 504.935H993.49V510.466Z" fill="url(#paint2_linear_108_2)"/>
<path d="M967.139 333.815H738.111C735.416 333.815 733.231 336 733.231 338.695V479.235C733.231 481.93 735.416 484.115 738.111 484.115H967.139C969.834 484.115 972.019 481.93 972.019 479.235V338.695C972.019 336 969.834 333.815 967.139 333.815ZM962.259 474.355H742.991V343.575H962.259V474.355Z" fill="url(#paint3_linear_108_2)"/>
</g>
<g clip-path="url(#clip2_108_2)">
<path fill-rule="evenodd" clip-rule="evenodd" d="M549.018 94.224L591.789 51.4907C603.589 39.7127 603.589 20.5364 591.789 8.75841C579.973 -3.09509 560.826 -3.09509 549.018 8.75841L506.255 51.4907L463.492 8.75841C451.691 -3.09509 432.544 -3.09509 420.728 8.75841C408.928 20.5364 408.928 39.7127 420.728 51.4907L463.492 94.224L420.728 137.033C408.928 148.811 408.928 167.988 420.728 179.766C432.544 191.62 451.691 191.62 463.492 179.766L506.255 137.033L549.018 179.766C560.826 191.62 579.973 191.62 591.789 179.766C603.589 167.988 603.589 148.811 591.789 137.033L549.018 94.224Z" fill="#2B597E" fill-opacity="0.5"/>
</g>
<g clip-path="url(#clip3_108_2)">
<path d="M538.957 53.0014C505.92 20.6508 449.739 38.2572 441.428 83.942C429.687 85.637 419.627 93.3223 414.878 104.246C414.872 104.259 414.867 104.272 414.861 104.285C405.023 126.995 421.786 152.296 446.384 152.296H550.443C578.182 152.296 600.75 129.728 600.75 101.989C600.75 69.764 570.636 45.5956 538.957 53.0014ZM550.443 140.501H446.385C420.857 140.501 415.221 104.276 439.486 96.4629C444.925 94.7486 455.342 93.754 466.906 104.533C469.289 106.754 473.021 106.623 475.241 104.241C477.462 101.858 477.331 98.1262 474.949 95.9055C468.339 89.7446 460.914 85.8302 453.388 84.3103C461.511 47.7854 507.718 35.7032 532.74 63.5533C534.284 65.2716 536.689 65.9315 538.893 65.2381C563.693 57.4533 588.955 76.0668 588.955 101.989C588.955 123.224 571.678 140.501 550.443 140.501Z" fill="#2B597E"/>
</g>
<path d="M679.605 120.584C678.681 120.526 677.885 121.228 677.827 122.152C677.769 123.076 678.471 123.872 679.395 123.93L679.605 120.584ZM869.946 257.636C870.77 258.057 871.78 257.73 872.201 256.905L879.063 243.469C879.484 242.645 879.157 241.635 878.332 241.214C877.508 240.793 876.498 241.12 876.077 241.945L869.978 253.887L858.035 247.788C857.21 247.367 856.2 247.694 855.779 248.519C855.358 249.343 855.685 250.353 856.51 250.774L869.946 257.636ZM679.395 123.93C704.331 125.499 743.83 134.035 781.074 154.539C818.297 175.032 853.164 207.417 869.113 256.659L872.303 255.626C856.021 205.358 820.438 172.383 782.691 151.602C744.965 130.833 704.976 122.181 679.605 120.584L679.395 123.93Z" fill="#2B597E"/>
<path d="M141.257 255.563C140.886 256.412 141.274 257.4 142.122 257.771C142.97 258.141 143.959 257.754 144.329 256.906L141.257 255.563ZM335.143 123.576C335.821 122.945 335.859 121.885 335.228 121.207L324.95 110.164C324.319 109.486 323.258 109.448 322.581 110.079C321.903 110.71 321.865 111.77 322.496 112.448L331.632 122.264L321.816 131.401C321.138 132.031 321.1 133.092 321.731 133.77C322.362 134.447 323.422 134.486 324.1 133.855L335.143 123.576ZM144.329 256.906C154.332 234.01 175.863 199.812 207.868 171.827C239.856 143.857 282.213 122.169 333.941 124.024L334.061 120.674C281.256 118.78 238.099 140.94 205.662 169.303C173.242 197.65 151.434 232.269 141.257 255.563L144.329 256.906Z" fill="#2B597E"/>
<path d="M171.57 149.453L173.013 148.443L178.537 156.332C179.107 157.146 179.424 158.008 179.488 158.917C179.554 159.819 179.368 160.697 178.932 161.552C178.493 162.403 177.806 163.155 176.871 163.81C175.936 164.464 174.994 164.852 174.045 164.974C173.093 165.091 172.202 164.967 171.372 164.599C170.544 164.226 169.845 163.631 169.275 162.817L163.751 154.928L165.193 153.918L170.636 161.69C171.043 162.272 171.534 162.7 172.108 162.975C172.679 163.246 173.292 163.345 173.947 163.274C174.603 163.196 175.263 162.924 175.926 162.46C176.589 161.996 177.07 161.468 177.368 160.878C177.663 160.284 177.779 159.674 177.716 159.048C177.654 158.415 177.42 157.807 177.012 157.226L171.57 149.453ZM186.397 161.822L177.793 149.534L179.12 148.605L180.114 150.025L180.277 149.911C180.269 149.685 180.27 149.39 180.28 149.024C180.291 148.652 180.399 148.253 180.604 147.827C180.809 147.394 181.203 146.974 181.784 146.566C182.537 146.039 183.332 145.763 184.169 145.737C185.007 145.712 185.828 145.931 186.634 146.396C187.439 146.861 188.17 147.563 188.827 148.502C189.49 149.448 189.903 150.381 190.068 151.301C190.229 152.217 190.158 153.064 189.854 153.843C189.547 154.619 189.021 155.267 188.277 155.789C187.703 156.191 187.177 156.417 186.698 156.469C186.217 156.517 185.798 156.484 185.441 156.37C185.081 156.252 184.794 156.147 184.579 156.055L184.462 156.136L187.77 160.86L186.397 161.822ZM182.272 153.057C182.744 153.732 183.26 154.258 183.819 154.636C184.375 155.009 184.945 155.208 185.529 155.233C186.11 155.254 186.676 155.071 187.227 154.686C187.801 154.284 188.174 153.797 188.346 153.226C188.52 152.648 188.523 152.033 188.355 151.381C188.189 150.723 187.883 150.076 187.438 149.44C186.998 148.811 186.505 148.313 185.958 147.945C185.412 147.57 184.842 147.371 184.248 147.347C183.654 147.318 183.067 147.506 182.485 147.914C181.927 148.305 181.557 148.775 181.375 149.324C181.19 149.87 181.177 150.462 181.337 151.102C181.493 151.739 181.805 152.39 182.272 153.057ZM187.064 138.604L195.407 150.519L194.034 151.48L185.691 139.565L187.064 138.604ZM201.683 146.402C200.876 146.967 200.034 147.27 199.156 147.313C198.282 147.353 197.433 147.147 196.608 146.695C195.787 146.241 195.053 145.553 194.407 144.629C193.755 143.699 193.355 142.768 193.206 141.837C193.061 140.904 193.157 140.034 193.493 139.226C193.833 138.416 194.407 137.728 195.214 137.163C196.02 136.598 196.861 136.296 197.735 136.256C198.612 136.214 199.463 136.422 200.287 136.88C201.114 137.335 201.854 138.028 202.505 138.959C203.152 139.882 203.546 140.808 203.688 141.738C203.834 142.664 203.737 143.533 203.397 144.343C203.061 145.151 202.489 145.837 201.683 146.402ZM200.819 145.169C201.432 144.739 201.826 144.229 202.002 143.638C202.177 143.047 202.181 142.429 202.012 141.784C201.844 141.139 201.551 140.518 201.132 139.92C200.714 139.323 200.229 138.833 199.678 138.45C199.127 138.067 198.542 137.856 197.924 137.814C197.306 137.773 196.69 137.967 196.077 138.397C195.464 138.826 195.071 139.338 194.899 139.933C194.726 140.528 194.725 141.15 194.896 141.799C195.067 142.448 195.362 143.071 195.78 143.668C196.198 144.265 196.682 144.753 197.23 145.132C197.779 145.511 198.361 145.719 198.976 145.756C199.592 145.794 200.206 145.598 200.819 145.169ZM210.474 140.281C209.907 140.678 209.319 140.931 208.708 141.041C208.094 141.147 207.509 141.091 206.952 140.874C206.393 140.653 205.91 140.251 205.502 139.67C205.144 139.158 204.954 138.672 204.933 138.213C204.909 137.75 205.002 137.309 205.212 136.89C205.422 136.472 205.699 136.075 206.044 135.701C206.39 135.32 206.751 134.957 207.128 134.612C207.623 134.162 208.026 133.801 208.339 133.53C208.653 133.252 208.857 133.015 208.949 132.817C209.046 132.616 209.017 132.405 208.862 132.184L208.829 132.138C208.427 131.564 207.958 131.228 207.421 131.13C206.888 131.029 206.306 131.2 205.673 131.643C205.018 132.102 204.604 132.605 204.433 133.153C204.262 133.7 204.214 134.19 204.291 134.622L202.662 135.069C202.515 134.363 202.529 133.723 202.705 133.149C202.882 132.568 203.16 132.056 203.537 131.613C203.915 131.163 204.33 130.78 204.78 130.465C205.067 130.264 205.421 130.068 205.842 129.877C206.264 129.68 206.723 129.563 207.219 129.528C207.719 129.491 208.233 129.602 208.762 129.862C209.29 130.121 209.803 130.606 210.3 131.316L214.423 137.204L213.05 138.165L212.202 136.955L212.133 137.004C212.175 137.263 212.165 137.579 212.103 137.952C212.041 138.325 211.883 138.716 211.631 139.124C211.379 139.531 210.993 139.917 210.474 140.281ZM209.819 138.901C210.362 138.521 210.745 138.094 210.968 137.62C211.195 137.143 211.286 136.669 211.239 136.199C211.197 135.726 211.045 135.303 210.785 134.93L209.905 133.674C209.896 133.784 209.812 133.938 209.655 134.135C209.499 134.325 209.308 134.531 209.082 134.753C208.857 134.968 208.635 135.175 208.417 135.375C208.199 135.567 208.023 135.725 207.89 135.848C207.565 136.144 207.285 136.453 207.048 136.775C206.812 137.091 206.671 137.418 206.625 137.756C206.58 138.088 206.68 138.429 206.924 138.778C207.258 139.255 207.687 139.492 208.211 139.489C208.737 139.48 209.273 139.284 209.819 138.901ZM220.433 133.272C219.689 133.794 218.9 134.066 218.066 134.089C217.23 134.108 216.409 133.885 215.604 133.42C214.796 132.951 214.06 132.244 213.398 131.297C212.74 130.359 212.331 129.432 212.169 128.516C212.008 127.6 212.083 126.753 212.393 125.975C212.704 125.197 213.235 124.544 213.988 124.017C214.569 123.61 215.097 123.385 215.57 123.343C216.045 123.294 216.457 123.329 216.806 123.449C217.157 123.561 217.437 123.66 217.646 123.745L217.763 123.663L214.683 119.265L216.056 118.303L224.399 130.218L223.072 131.147L222.111 129.774L221.948 129.888C221.961 130.122 221.962 130.428 221.949 130.806C221.934 131.181 221.822 131.586 221.613 132.022C221.401 132.454 221.007 132.87 220.433 133.272ZM219.756 131.909C220.307 131.523 220.672 131.054 220.851 130.5C221.027 129.943 221.035 129.34 220.874 128.689C220.711 128.035 220.393 127.37 219.921 126.695C219.453 126.028 218.948 125.512 218.403 125.148C217.856 124.779 217.295 124.589 216.72 124.576C216.141 124.559 215.573 124.746 215.014 125.137C214.432 125.544 214.052 126.033 213.873 126.603C213.696 127.167 213.688 127.77 213.85 128.414C214.013 129.052 214.314 129.684 214.754 130.313C215.2 130.949 215.701 131.459 216.259 131.843C216.818 132.22 217.397 132.428 217.995 132.465C218.595 132.496 219.182 132.311 219.756 131.909Z" fill="white"/>
<path d="M778.899 124.362L775.222 121.787L783.565 109.872L787.405 112.561C788.56 113.37 789.382 114.301 789.871 115.354C790.362 116.403 790.515 117.525 790.332 118.72C790.151 119.911 789.628 121.123 788.765 122.357C787.896 123.598 786.926 124.512 785.857 125.098C784.79 125.68 783.666 125.916 782.483 125.805C781.304 125.69 780.109 125.209 778.899 124.362ZM777.561 121.517L779.702 123.016C780.687 123.706 781.637 124.088 782.55 124.161C783.464 124.235 784.326 124.032 785.136 123.553C785.945 123.073 786.69 122.349 787.368 121.379C788.042 120.417 788.465 119.479 788.637 118.565C788.811 117.647 788.717 116.783 788.353 115.973C787.992 115.16 787.346 114.427 786.415 113.775L784.111 112.162L777.561 121.517ZM790.311 132.63C789.504 132.065 788.931 131.377 788.591 130.567C788.255 129.759 788.158 128.891 788.3 127.962C788.446 127.035 788.842 126.11 789.488 125.187C790.14 124.256 790.878 123.562 791.701 123.104C792.529 122.648 793.379 122.441 794.253 122.48C795.131 122.523 795.973 122.826 796.78 123.391C797.587 123.956 798.158 124.642 798.494 125.45C798.835 126.26 798.93 127.131 798.782 128.061C798.637 128.995 798.238 129.927 797.587 130.858C796.94 131.781 796.205 132.468 795.38 132.919C794.559 133.373 793.71 133.579 792.832 133.537C791.958 133.497 791.118 133.195 790.311 132.63ZM791.175 131.397C791.787 131.826 792.402 132.022 793.017 131.985C793.633 131.947 794.215 131.739 794.763 131.36C795.312 130.982 795.795 130.493 796.214 129.896C796.632 129.299 796.927 128.676 797.098 128.027C797.269 127.378 797.268 126.756 797.095 126.161C796.922 125.566 796.529 125.054 795.916 124.625C795.304 124.196 794.688 124.001 794.07 124.043C793.451 124.084 792.867 124.295 792.315 124.678C791.764 125.061 791.279 125.551 790.861 126.148C790.443 126.746 790.15 127.367 789.981 128.012C789.813 128.657 789.816 129.275 789.992 129.866C790.168 130.457 790.562 130.967 791.175 131.397ZM798.307 137.951L801.842 127.109L803.284 128.119L800.425 136.313L800.518 136.378L807.217 130.873L808.683 131.899L805.794 140.038L805.887 140.103L812.593 134.637L814.036 135.647L805.056 142.677L803.706 141.732L806.558 133.498L806.419 133.4L799.657 138.897L798.307 137.951ZM814.731 141.44L810.967 146.816L809.594 145.854L815.851 136.918L817.177 137.847L816.2 139.243L816.316 139.325C816.843 139.018 817.417 138.876 818.036 138.899C818.658 138.919 819.307 139.165 819.982 139.637C820.587 140.061 821.029 140.556 821.309 141.122C821.592 141.684 821.684 142.303 821.586 142.98C821.49 143.653 821.176 144.37 820.644 145.13L816.668 150.808L815.295 149.847L819.206 144.262C819.698 143.559 819.898 142.885 819.808 142.238C819.72 141.587 819.358 141.039 818.722 140.594C818.284 140.287 817.826 140.107 817.348 140.056C816.873 140.007 816.409 140.095 815.956 140.321C815.503 140.547 815.095 140.92 814.731 141.44ZM828.893 141.611L820.55 153.526L819.177 152.565L827.52 140.65L828.893 141.611ZM826.565 158.015C825.758 157.45 825.185 156.763 824.845 155.952C824.508 155.145 824.411 154.276 824.554 153.347C824.7 152.42 825.096 151.495 825.742 150.572C826.394 149.641 827.132 148.947 827.955 148.489C828.783 148.034 829.633 147.826 830.507 147.866C831.385 147.908 832.227 148.212 833.034 148.776C833.841 149.341 834.412 150.028 834.748 150.835C835.088 151.646 835.184 152.516 835.035 153.447C834.891 154.38 834.492 155.312 833.84 156.243C833.194 157.166 832.459 157.853 831.634 158.305C830.813 158.759 829.964 158.964 829.086 158.922C828.212 158.882 827.372 158.58 826.565 158.015ZM827.429 156.782C828.041 157.211 828.656 157.407 829.271 157.37C829.887 157.333 830.469 157.125 831.017 156.746C831.566 156.367 832.049 155.879 832.467 155.281C832.886 154.684 833.18 154.061 833.352 153.412C833.523 152.763 833.522 152.141 833.349 151.546C833.176 150.951 832.783 150.439 832.17 150.01C831.557 149.581 830.942 149.387 830.324 149.428C829.705 149.469 829.121 149.681 828.569 150.063C828.018 150.446 827.533 150.936 827.115 151.534C826.697 152.131 826.403 152.752 826.235 153.397C826.067 154.042 826.07 154.66 826.246 155.251C826.421 155.843 826.816 156.353 827.429 156.782ZM835.323 164.183C834.757 163.786 834.318 163.32 834.006 162.783C833.696 162.243 833.548 161.674 833.562 161.077C833.578 160.475 833.79 159.884 834.198 159.302C834.556 158.79 834.948 158.446 835.372 158.269C835.799 158.088 836.245 158.025 836.71 158.079C837.175 158.133 837.643 158.258 838.112 158.454C838.589 158.648 839.053 158.864 839.506 159.1C840.098 159.411 840.575 159.667 840.937 159.868C841.305 160.068 841.598 160.178 841.816 160.197C842.038 160.219 842.226 160.12 842.381 159.899L842.413 159.852C842.815 159.278 842.97 158.722 842.879 158.184C842.791 157.649 842.431 157.16 841.799 156.717C841.144 156.258 840.529 156.042 839.956 156.068C839.383 156.095 838.906 156.218 838.527 156.438L837.55 155.06C838.163 154.68 838.769 154.474 839.369 154.443C839.975 154.411 840.551 154.496 841.097 154.699C841.649 154.901 842.15 155.16 842.6 155.475C842.887 155.676 843.192 155.941 843.516 156.272C843.846 156.601 844.112 156.993 844.314 157.447C844.521 157.903 844.592 158.424 844.529 159.01C844.465 159.596 844.185 160.244 843.688 160.953L839.566 166.841L838.193 165.88L839.04 164.67L838.97 164.621C838.741 164.749 838.441 164.848 838.069 164.917C837.697 164.986 837.276 164.972 836.807 164.875C836.338 164.777 835.843 164.547 835.323 164.183ZM836.396 163.096C836.939 163.476 837.472 163.69 837.993 163.737C838.519 163.787 838.995 163.71 839.421 163.506C839.852 163.304 840.197 163.017 840.458 162.645L841.338 161.388C841.231 161.417 841.058 161.392 840.819 161.311C840.587 161.23 840.328 161.121 840.043 160.984C839.763 160.847 839.493 160.709 839.23 160.572C838.975 160.433 838.766 160.322 838.605 160.238C838.216 160.035 837.83 159.877 837.446 159.764C837.069 159.651 836.713 159.63 836.379 159.703C836.052 159.774 835.766 159.984 835.522 160.333C835.188 160.81 835.112 161.295 835.293 161.786C835.482 162.276 835.85 162.713 836.396 163.096ZM845.316 171.145C844.571 170.623 844.045 169.975 843.739 169.199C843.435 168.42 843.363 167.573 843.525 166.657C843.689 165.737 844.103 164.804 844.765 163.858C845.422 162.919 846.154 162.217 846.959 161.752C847.764 161.287 848.586 161.068 849.423 161.093C850.261 161.119 851.056 161.395 851.808 161.922C852.39 162.33 852.782 162.748 852.983 163.179C853.191 163.608 853.299 164.007 853.307 164.376C853.32 164.744 853.324 165.041 853.316 165.267L853.432 165.348L856.512 160.95L857.885 161.912L849.542 173.826L848.215 172.898L849.177 171.525L849.014 171.411C848.799 171.503 848.512 171.608 848.152 171.726C847.794 171.84 847.375 171.873 846.894 171.825C846.416 171.773 845.89 171.547 845.316 171.145ZM846.366 170.042C846.916 170.427 847.482 170.61 848.063 170.589C848.647 170.564 849.217 170.365 849.773 169.992C850.332 169.614 850.848 169.088 851.321 168.413C851.788 167.746 852.1 167.095 852.256 166.458C852.415 165.818 852.402 165.226 852.218 164.68C852.036 164.131 851.666 163.661 851.107 163.27C850.526 162.862 849.936 162.672 849.339 162.699C848.749 162.725 848.179 162.924 847.629 163.297C847.086 163.668 846.594 164.167 846.155 164.796C845.709 165.432 845.401 166.078 845.231 166.733C845.068 167.388 845.071 168.002 845.241 168.578C845.417 169.152 845.792 169.64 846.366 170.042Z" fill="white"/>
<path d="M377.486 318.091V319.511H371.605V318.091H377.486ZM373.366 329V316.585C373.366 315.96 373.513 315.439 373.807 315.023C374.1 314.606 374.482 314.294 374.95 314.085C375.419 313.877 375.914 313.773 376.435 313.773C376.847 313.773 377.183 313.806 377.443 313.872C377.704 313.938 377.898 314 378.026 314.057L377.543 315.506C377.457 315.477 377.339 315.442 377.188 315.399C377.041 315.357 376.847 315.335 376.605 315.335C376.051 315.335 375.651 315.475 375.405 315.754C375.163 316.034 375.043 316.443 375.043 316.983V329H373.366ZM382.733 329.256C382.041 329.256 381.414 329.125 380.85 328.865C380.287 328.6 379.84 328.219 379.508 327.722C379.177 327.22 379.011 326.614 379.011 325.903C379.011 325.278 379.134 324.772 379.38 324.384C379.627 323.991 379.956 323.683 380.368 323.46C380.779 323.238 381.234 323.072 381.731 322.963C382.233 322.849 382.737 322.759 383.244 322.693C383.907 322.608 384.444 322.544 384.856 322.501C385.273 322.454 385.576 322.376 385.765 322.267C385.959 322.158 386.056 321.969 386.056 321.699V321.642C386.056 320.941 385.865 320.397 385.481 320.009C385.102 319.62 384.527 319.426 383.755 319.426C382.955 319.426 382.328 319.601 381.873 319.952C381.419 320.302 381.099 320.676 380.914 321.074L379.324 320.506C379.608 319.843 379.986 319.327 380.46 318.957C380.938 318.583 381.459 318.323 382.022 318.176C382.591 318.025 383.149 317.949 383.699 317.949C384.049 317.949 384.451 317.991 384.906 318.077C385.365 318.157 385.808 318.325 386.234 318.581C386.665 318.837 387.022 319.223 387.306 319.739C387.591 320.255 387.733 320.946 387.733 321.812V329H386.056V327.523H385.971C385.858 327.759 385.668 328.013 385.403 328.283C385.138 328.553 384.785 328.782 384.345 328.972C383.904 329.161 383.367 329.256 382.733 329.256ZM382.988 327.75C383.651 327.75 384.21 327.62 384.664 327.359C385.124 327.099 385.469 326.763 385.701 326.351C385.938 325.939 386.056 325.506 386.056 325.051V323.517C385.985 323.602 385.829 323.68 385.588 323.751C385.351 323.818 385.076 323.877 384.764 323.929C384.456 323.976 384.155 324.019 383.862 324.057C383.573 324.09 383.339 324.118 383.159 324.142C382.723 324.199 382.316 324.291 381.937 324.419C381.563 324.542 381.26 324.729 381.028 324.98C380.801 325.226 380.687 325.562 380.687 325.989C380.687 326.571 380.903 327.011 381.333 327.31C381.769 327.603 382.321 327.75 382.988 327.75ZM398.519 320.534L397.013 320.96C396.919 320.709 396.779 320.465 396.594 320.229C396.415 319.987 396.168 319.788 395.856 319.632C395.543 319.476 395.143 319.398 394.656 319.398C393.988 319.398 393.432 319.552 392.987 319.859C392.546 320.162 392.326 320.548 392.326 321.017C392.326 321.434 392.478 321.763 392.781 322.004C393.084 322.246 393.557 322.447 394.201 322.608L395.82 323.006C396.796 323.242 397.522 323.605 398.001 324.092C398.479 324.575 398.718 325.198 398.718 325.96C398.718 326.585 398.538 327.144 398.178 327.636C397.823 328.129 397.326 328.517 396.687 328.801C396.048 329.085 395.304 329.227 394.457 329.227C393.344 329.227 392.423 328.986 391.694 328.503C390.965 328.02 390.503 327.314 390.309 326.386L391.9 325.989C392.051 326.576 392.338 327.016 392.759 327.31C393.185 327.603 393.742 327.75 394.428 327.75C395.21 327.75 395.83 327.584 396.289 327.253C396.753 326.917 396.985 326.514 396.985 326.045C396.985 325.667 396.853 325.349 396.587 325.094C396.322 324.833 395.915 324.639 395.366 324.511L393.548 324.085C392.549 323.848 391.815 323.482 391.346 322.984C390.882 322.482 390.65 321.855 390.65 321.102C390.65 320.487 390.823 319.942 391.168 319.469C391.519 318.995 391.995 318.624 392.596 318.354C393.202 318.084 393.888 317.949 394.656 317.949C395.735 317.949 396.583 318.186 397.198 318.659C397.818 319.133 398.259 319.758 398.519 320.534ZM405.985 318.091V319.511H400.332V318.091H405.985ZM401.98 315.477H403.656V325.875C403.656 326.348 403.725 326.704 403.862 326.94C404.004 327.172 404.184 327.329 404.402 327.409C404.624 327.485 404.859 327.523 405.105 327.523C405.289 327.523 405.441 327.513 405.559 327.494C405.678 327.471 405.772 327.452 405.843 327.438L406.184 328.943C406.071 328.986 405.912 329.028 405.708 329.071C405.505 329.118 405.247 329.142 404.934 329.142C404.461 329.142 403.997 329.04 403.542 328.837C403.092 328.633 402.718 328.323 402.42 327.906C402.127 327.49 401.98 326.964 401.98 326.33V315.477ZM415.808 322.438V329H414.132V318.091H415.751V319.795H415.893C416.149 319.241 416.537 318.796 417.058 318.46C417.579 318.119 418.251 317.949 419.075 317.949C419.814 317.949 420.46 318.1 421.014 318.403C421.568 318.702 421.999 319.156 422.306 319.767C422.614 320.373 422.768 321.14 422.768 322.068V329H421.092V322.182C421.092 321.325 420.869 320.657 420.424 320.179C419.979 319.696 419.368 319.455 418.592 319.455C418.057 319.455 417.579 319.571 417.157 319.803C416.741 320.035 416.412 320.373 416.17 320.818C415.929 321.263 415.808 321.803 415.808 322.438ZM430.263 329.227C429.278 329.227 428.414 328.993 427.67 328.524C426.932 328.055 426.354 327.4 425.938 326.557C425.526 325.714 425.32 324.729 425.32 323.602C425.32 322.466 425.526 321.474 425.938 320.626C426.354 319.779 426.932 319.121 427.67 318.652C428.414 318.183 429.278 317.949 430.263 317.949C431.248 317.949 432.109 318.183 432.848 318.652C433.591 319.121 434.169 319.779 434.581 320.626C434.998 321.474 435.206 322.466 435.206 323.602C435.206 324.729 434.998 325.714 434.581 326.557C434.169 327.4 433.591 328.055 432.848 328.524C432.109 328.993 431.248 329.227 430.263 329.227ZM430.263 327.722C431.011 327.722 431.626 327.53 432.109 327.146C432.592 326.763 432.95 326.259 433.182 325.634C433.414 325.009 433.53 324.331 433.53 323.602C433.53 322.873 433.414 322.194 433.182 321.564C432.95 320.934 432.592 320.425 432.109 320.037C431.626 319.649 431.011 319.455 430.263 319.455C429.515 319.455 428.899 319.649 428.416 320.037C427.933 320.425 427.576 320.934 427.344 321.564C427.112 322.194 426.996 322.873 426.996 323.602C426.996 324.331 427.112 325.009 427.344 325.634C427.576 326.259 427.933 326.763 428.416 327.146C428.899 327.53 429.515 327.722 430.263 327.722ZM443.39 329V318.091H445.009V319.795H445.151C445.378 319.213 445.745 318.761 446.252 318.439C446.758 318.112 447.367 317.949 448.077 317.949C448.797 317.949 449.396 318.112 449.874 318.439C450.357 318.761 450.733 319.213 451.003 319.795H451.117C451.396 319.232 451.815 318.785 452.374 318.453C452.933 318.117 453.603 317.949 454.384 317.949C455.359 317.949 456.157 318.254 456.777 318.865C457.398 319.471 457.708 320.416 457.708 321.699V329H456.032V321.699C456.032 320.894 455.811 320.319 455.371 319.973C454.931 319.627 454.412 319.455 453.816 319.455C453.049 319.455 452.454 319.687 452.033 320.151C451.612 320.61 451.401 321.192 451.401 321.898V329H449.696V321.528C449.696 320.908 449.495 320.409 449.093 320.03C448.69 319.646 448.172 319.455 447.537 319.455C447.102 319.455 446.694 319.571 446.316 319.803C445.942 320.035 445.639 320.357 445.407 320.768C445.179 321.176 445.066 321.647 445.066 322.182V329H443.39ZM463.983 329.256C463.291 329.256 462.664 329.125 462.1 328.865C461.537 328.6 461.09 328.219 460.758 327.722C460.427 327.22 460.261 326.614 460.261 325.903C460.261 325.278 460.384 324.772 460.63 324.384C460.877 323.991 461.206 323.683 461.618 323.46C462.029 323.238 462.484 323.072 462.981 322.963C463.483 322.849 463.987 322.759 464.494 322.693C465.157 322.608 465.694 322.544 466.106 322.501C466.523 322.454 466.826 322.376 467.015 322.267C467.209 322.158 467.306 321.969 467.306 321.699V321.642C467.306 320.941 467.115 320.397 466.731 320.009C466.352 319.62 465.777 319.426 465.005 319.426C464.205 319.426 463.578 319.601 463.123 319.952C462.669 320.302 462.349 320.676 462.164 321.074L460.574 320.506C460.858 319.843 461.236 319.327 461.71 318.957C462.188 318.583 462.709 318.323 463.272 318.176C463.841 318.025 464.399 317.949 464.949 317.949C465.299 317.949 465.701 317.991 466.156 318.077C466.615 318.157 467.058 318.325 467.484 318.581C467.915 318.837 468.272 319.223 468.556 319.739C468.841 320.255 468.983 320.946 468.983 321.812V329H467.306V327.523H467.221C467.108 327.759 466.918 328.013 466.653 328.283C466.388 328.553 466.035 328.782 465.595 328.972C465.154 329.161 464.617 329.256 463.983 329.256ZM464.238 327.75C464.901 327.75 465.46 327.62 465.914 327.359C466.374 327.099 466.719 326.763 466.951 326.351C467.188 325.939 467.306 325.506 467.306 325.051V323.517C467.235 323.602 467.079 323.68 466.838 323.751C466.601 323.818 466.326 323.877 466.014 323.929C465.706 323.976 465.405 324.019 465.112 324.057C464.823 324.09 464.589 324.118 464.409 324.142C463.973 324.199 463.566 324.291 463.187 324.419C462.813 324.542 462.51 324.729 462.278 324.98C462.051 325.226 461.937 325.562 461.937 325.989C461.937 326.571 462.153 327.011 462.583 327.31C463.019 327.603 463.571 327.75 464.238 327.75ZM476.786 318.091V319.511H471.133V318.091H476.786ZM472.781 315.477H474.457V325.875C474.457 326.348 474.525 326.704 474.663 326.94C474.805 327.172 474.985 327.329 475.202 327.409C475.425 327.485 475.659 327.523 475.906 327.523C476.09 327.523 476.242 327.513 476.36 327.494C476.478 327.471 476.573 327.452 476.644 327.438L476.985 328.943C476.871 328.986 476.713 329.028 476.509 329.071C476.306 329.118 476.048 329.142 475.735 329.142C475.262 329.142 474.798 329.04 474.343 328.837C473.893 328.633 473.519 328.323 473.221 327.906C472.927 327.49 472.781 326.964 472.781 326.33V315.477ZM484.052 318.091V319.511H478.398V318.091H484.052ZM480.046 315.477H481.722V325.875C481.722 326.348 481.791 326.704 481.928 326.94C482.07 327.172 482.25 327.329 482.468 327.409C482.691 327.485 482.925 327.523 483.171 327.523C483.356 327.523 483.507 327.513 483.626 327.494C483.744 327.471 483.839 327.452 483.91 327.438L484.251 328.943C484.137 328.986 483.978 329.028 483.775 329.071C483.571 329.118 483.313 329.142 483.001 329.142C482.527 329.142 482.063 329.04 481.609 328.837C481.159 328.633 480.785 328.323 480.487 327.906C480.193 327.49 480.046 326.964 480.046 326.33V315.477ZM491.03 329.227C489.979 329.227 489.072 328.995 488.31 328.531C487.552 328.062 486.967 327.409 486.555 326.571C486.148 325.728 485.945 324.748 485.945 323.631C485.945 322.513 486.148 321.528 486.555 320.676C486.967 319.819 487.54 319.152 488.274 318.673C489.013 318.19 489.875 317.949 490.859 317.949C491.428 317.949 491.989 318.044 492.543 318.233C493.097 318.422 493.601 318.73 494.055 319.156C494.51 319.578 494.872 320.136 495.142 320.832C495.412 321.528 495.547 322.385 495.547 323.403V324.114H487.138V322.665H493.842C493.842 322.049 493.719 321.5 493.473 321.017C493.232 320.534 492.886 320.153 492.436 319.874C491.991 319.594 491.465 319.455 490.859 319.455C490.192 319.455 489.614 319.62 489.126 319.952C488.643 320.278 488.272 320.705 488.011 321.23C487.751 321.756 487.621 322.319 487.621 322.92V323.886C487.621 324.71 487.763 325.409 488.047 325.982C488.336 326.55 488.736 326.983 489.247 327.281C489.759 327.575 490.353 327.722 491.03 327.722C491.47 327.722 491.868 327.66 492.223 327.537C492.583 327.409 492.893 327.22 493.153 326.969C493.414 326.713 493.615 326.396 493.757 326.017L495.376 326.472C495.206 327.021 494.92 327.504 494.517 327.92C494.115 328.332 493.617 328.654 493.026 328.886C492.434 329.114 491.768 329.227 491.03 329.227ZM498.097 329V318.091H499.716V319.739H499.83C500.028 319.199 500.388 318.761 500.909 318.425C501.43 318.089 502.017 317.92 502.67 317.92C502.794 317.92 502.947 317.923 503.132 317.928C503.317 317.932 503.456 317.939 503.551 317.949V319.653C503.494 319.639 503.364 319.618 503.161 319.589C502.962 319.556 502.751 319.54 502.528 319.54C501.998 319.54 501.525 319.651 501.108 319.874C500.696 320.091 500.369 320.394 500.128 320.783C499.891 321.166 499.773 321.604 499.773 322.097V329H498.097ZM515.907 318.091V319.511H510.254V318.091H515.907ZM511.902 315.477H513.578V325.875C513.578 326.348 513.646 326.704 513.784 326.94C513.926 327.172 514.106 327.329 514.324 327.409C514.546 327.485 514.78 327.523 515.027 327.523C515.211 327.523 515.363 327.513 515.481 327.494C515.6 327.471 515.694 327.452 515.765 327.438L516.106 328.943C515.993 328.986 515.834 329.028 515.63 329.071C515.427 329.118 515.169 329.142 514.856 329.142C514.383 329.142 513.919 329.04 513.464 328.837C513.014 328.633 512.64 328.323 512.342 327.906C512.048 327.49 511.902 326.964 511.902 326.33V315.477ZM520.339 322.438V329H518.663V314.455H520.339V319.795H520.481C520.737 319.232 521.12 318.785 521.632 318.453C522.148 318.117 522.834 317.949 523.691 317.949C524.435 317.949 525.086 318.098 525.645 318.396C526.203 318.69 526.636 319.142 526.944 319.753C527.257 320.359 527.413 321.131 527.413 322.068V329H525.737V322.182C525.737 321.315 525.512 320.645 525.062 320.172C524.617 319.694 523.999 319.455 523.208 319.455C522.659 319.455 522.167 319.571 521.731 319.803C521.3 320.035 520.959 320.373 520.708 320.818C520.462 321.263 520.339 321.803 520.339 322.438ZM535.053 329.227C534.002 329.227 533.095 328.995 532.333 328.531C531.576 328.062 530.991 327.409 530.579 326.571C530.172 325.728 529.968 324.748 529.968 323.631C529.968 322.513 530.172 321.528 530.579 320.676C530.991 319.819 531.564 319.152 532.298 318.673C533.036 318.19 533.898 317.949 534.883 317.949C535.451 317.949 536.012 318.044 536.566 318.233C537.12 318.422 537.624 318.73 538.079 319.156C538.533 319.578 538.896 320.136 539.165 320.832C539.435 321.528 539.57 322.385 539.57 323.403V324.114H531.161V322.665H537.866C537.866 322.049 537.743 321.5 537.496 321.017C537.255 320.534 536.909 320.153 536.46 319.874C536.014 319.594 535.489 319.455 534.883 319.455C534.215 319.455 533.638 319.62 533.15 319.952C532.667 320.278 532.295 320.705 532.035 321.23C531.774 321.756 531.644 322.319 531.644 322.92V323.886C531.644 324.71 531.786 325.409 532.07 325.982C532.359 326.55 532.759 326.983 533.271 327.281C533.782 327.575 534.376 327.722 535.053 327.722C535.494 327.722 535.891 327.66 536.246 327.537C536.606 327.409 536.916 327.22 537.177 326.969C537.437 326.713 537.638 326.396 537.781 326.017L539.4 326.472C539.229 327.021 538.943 327.504 538.54 327.92C538.138 328.332 537.641 328.654 537.049 328.886C536.457 329.114 535.792 329.227 535.053 329.227ZM551.864 329.227C550.955 329.227 550.153 328.998 549.457 328.538C548.761 328.074 548.216 327.421 547.823 326.578C547.43 325.731 547.234 324.729 547.234 323.574C547.234 322.428 547.43 321.434 547.823 320.591C548.216 319.748 548.763 319.097 549.464 318.638C550.165 318.179 550.974 317.949 551.893 317.949C552.603 317.949 553.164 318.067 553.576 318.304C553.993 318.536 554.31 318.801 554.528 319.099C554.75 319.393 554.923 319.634 555.046 319.824H555.188V314.455H556.864V329H555.245V327.324H555.046C554.923 327.523 554.748 327.774 554.521 328.077C554.293 328.375 553.969 328.643 553.548 328.879C553.126 329.111 552.565 329.227 551.864 329.227ZM552.092 327.722C552.764 327.722 553.332 327.546 553.796 327.196C554.26 326.841 554.613 326.351 554.854 325.726C555.096 325.096 555.217 324.369 555.217 323.545C555.217 322.731 555.098 322.018 554.862 321.408C554.625 320.792 554.274 320.314 553.81 319.973C553.346 319.627 552.773 319.455 552.092 319.455C551.381 319.455 550.79 319.637 550.316 320.001C549.847 320.361 549.495 320.851 549.258 321.472C549.026 322.087 548.91 322.778 548.91 323.545C548.91 324.322 549.028 325.027 549.265 325.662C549.506 326.292 549.862 326.794 550.33 327.168C550.804 327.537 551.391 327.722 552.092 327.722ZM563.377 329.256C562.686 329.256 562.058 329.125 561.495 328.865C560.932 328.6 560.484 328.219 560.153 327.722C559.821 327.22 559.656 326.614 559.656 325.903C559.656 325.278 559.779 324.772 560.025 324.384C560.271 323.991 560.6 323.683 561.012 323.46C561.424 323.238 561.879 323.072 562.376 322.963C562.878 322.849 563.382 322.759 563.888 322.693C564.551 322.608 565.089 322.544 565.501 322.501C565.917 322.454 566.22 322.376 566.41 322.267C566.604 322.158 566.701 321.969 566.701 321.699V321.642C566.701 320.941 566.509 320.397 566.126 320.009C565.747 319.62 565.172 319.426 564.4 319.426C563.6 319.426 562.972 319.601 562.518 319.952C562.063 320.302 561.744 320.676 561.559 321.074L559.968 320.506C560.252 319.843 560.631 319.327 561.104 318.957C561.583 318.583 562.103 318.323 562.667 318.176C563.235 318.025 563.794 317.949 564.343 317.949C564.693 317.949 565.096 317.991 565.55 318.077C566.01 318.157 566.452 318.325 566.879 318.581C567.309 318.837 567.667 319.223 567.951 319.739C568.235 320.255 568.377 320.946 568.377 321.812V329H566.701V327.523H566.616C566.502 327.759 566.313 328.013 566.048 328.283C565.782 328.553 565.43 328.782 564.989 328.972C564.549 329.161 564.012 329.256 563.377 329.256ZM563.633 327.75C564.296 327.75 564.854 327.62 565.309 327.359C565.768 327.099 566.114 326.763 566.346 326.351C566.583 325.939 566.701 325.506 566.701 325.051V323.517C566.63 323.602 566.474 323.68 566.232 323.751C565.996 323.818 565.721 323.877 565.408 323.929C565.101 323.976 564.8 324.019 564.506 324.057C564.218 324.09 563.983 324.118 563.803 324.142C563.368 324.199 562.96 324.291 562.582 324.419C562.208 324.542 561.905 324.729 561.673 324.98C561.445 325.226 561.332 325.562 561.332 325.989C561.332 326.571 561.547 327.011 561.978 327.31C562.414 327.603 562.965 327.75 563.633 327.75ZM576.181 318.091V319.511H570.527V318.091H576.181ZM572.175 315.477H573.851V325.875C573.851 326.348 573.92 326.704 574.057 326.94C574.199 327.172 574.379 327.329 574.597 327.409C574.819 327.485 575.054 327.523 575.3 327.523C575.485 327.523 575.636 327.513 575.755 327.494C575.873 327.471 575.968 327.452 576.039 327.438L576.38 328.943C576.266 328.986 576.107 329.028 575.904 329.071C575.7 329.118 575.442 329.142 575.13 329.142C574.656 329.142 574.192 329.04 573.738 328.837C573.288 328.633 572.914 328.323 572.615 327.906C572.322 327.49 572.175 326.964 572.175 326.33V315.477ZM581.912 329.256C581.221 329.256 580.594 329.125 580.03 328.865C579.467 328.6 579.019 328.219 578.688 327.722C578.356 327.22 578.191 326.614 578.191 325.903C578.191 325.278 578.314 324.772 578.56 324.384C578.806 323.991 579.135 323.683 579.547 323.46C579.959 323.238 580.414 323.072 580.911 322.963C581.413 322.849 581.917 322.759 582.424 322.693C583.087 322.608 583.624 322.544 584.036 322.501C584.453 322.454 584.756 322.376 584.945 322.267C585.139 322.158 585.236 321.969 585.236 321.699V321.642C585.236 320.941 585.044 320.397 584.661 320.009C584.282 319.62 583.707 319.426 582.935 319.426C582.135 319.426 581.507 319.601 581.053 319.952C580.598 320.302 580.279 320.676 580.094 321.074L578.503 320.506C578.787 319.843 579.166 319.327 579.64 318.957C580.118 318.583 580.639 318.323 581.202 318.176C581.77 318.025 582.329 317.949 582.878 317.949C583.229 317.949 583.631 317.991 584.086 318.077C584.545 318.157 584.988 318.325 585.414 318.581C585.845 318.837 586.202 319.223 586.486 319.739C586.77 320.255 586.912 320.946 586.912 321.812V329H585.236V327.523H585.151C585.037 327.759 584.848 328.013 584.583 328.283C584.318 328.553 583.965 328.782 583.525 328.972C583.084 329.161 582.547 329.256 581.912 329.256ZM582.168 327.75C582.831 327.75 583.39 327.62 583.844 327.359C584.303 327.099 584.649 326.763 584.881 326.351C585.118 325.939 585.236 325.506 585.236 325.051V323.517C585.165 323.602 585.009 323.68 584.767 323.751C584.531 323.818 584.256 323.877 583.944 323.929C583.636 323.976 583.335 324.019 583.042 324.057C582.753 324.09 582.518 324.118 582.338 324.142C581.903 324.199 581.496 324.291 581.117 324.419C580.743 324.542 580.44 324.729 580.208 324.98C579.98 325.226 579.867 325.562 579.867 325.989C579.867 326.571 580.082 327.011 580.513 327.31C580.949 327.603 581.5 327.75 582.168 327.75ZM603.324 320.534L601.818 320.96C601.723 320.709 601.584 320.465 601.399 320.229C601.219 319.987 600.973 319.788 600.661 319.632C600.348 319.476 599.948 319.398 599.46 319.398C598.793 319.398 598.236 319.552 597.791 319.859C597.351 320.162 597.131 320.548 597.131 321.017C597.131 321.434 597.282 321.763 597.585 322.004C597.888 322.246 598.362 322.447 599.006 322.608L600.625 323.006C601.6 323.242 602.327 323.605 602.805 324.092C603.284 324.575 603.523 325.198 603.523 325.96C603.523 326.585 603.343 327.144 602.983 327.636C602.628 328.129 602.131 328.517 601.491 328.801C600.852 329.085 600.109 329.227 599.261 329.227C598.149 329.227 597.228 328.986 596.499 328.503C595.769 328.02 595.308 327.314 595.114 326.386L596.705 325.989C596.856 326.576 597.143 327.016 597.564 327.31C597.99 327.603 598.546 327.75 599.233 327.75C600.014 327.75 600.634 327.584 601.094 327.253C601.558 326.917 601.79 326.514 601.79 326.045C601.79 325.667 601.657 325.349 601.392 325.094C601.127 324.833 600.72 324.639 600.17 324.511L598.352 324.085C597.353 323.848 596.619 323.482 596.151 322.984C595.687 322.482 595.455 321.855 595.455 321.102C595.455 320.487 595.627 319.942 595.973 319.469C596.323 318.995 596.799 318.624 597.401 318.354C598.007 318.084 598.693 317.949 599.46 317.949C600.54 317.949 601.387 318.186 602.003 318.659C602.623 319.133 603.063 319.758 603.324 320.534ZM606.046 329V318.091H607.722V329H606.046ZM606.898 316.273C606.571 316.273 606.29 316.161 606.053 315.939C605.821 315.716 605.705 315.449 605.705 315.136C605.705 314.824 605.821 314.556 606.053 314.334C606.29 314.111 606.571 314 606.898 314C607.225 314 607.504 314.111 607.736 314.334C607.973 314.556 608.091 314.824 608.091 315.136C608.091 315.449 607.973 315.716 607.736 315.939C607.504 316.161 607.225 316.273 606.898 316.273ZM610.479 329V327.722L616.673 319.767V319.653H610.678V318.091H618.832V319.426L612.809 327.324V327.438H619.031V329H610.479ZM625.874 329.227C624.822 329.227 623.916 328.995 623.153 328.531C622.396 328.062 621.811 327.409 621.399 326.571C620.992 325.728 620.788 324.748 620.788 323.631C620.788 322.513 620.992 321.528 621.399 320.676C621.811 319.819 622.384 319.152 623.118 318.673C623.857 318.19 624.718 317.949 625.703 317.949C626.271 317.949 626.832 318.044 627.386 318.233C627.94 318.422 628.445 318.73 628.899 319.156C629.354 319.578 629.716 320.136 629.986 320.832C630.256 321.528 630.391 322.385 630.391 323.403V324.114H621.982V322.665H628.686C628.686 322.049 628.563 321.5 628.317 321.017C628.075 320.534 627.73 320.153 627.28 319.874C626.835 319.594 626.309 319.455 625.703 319.455C625.036 319.455 624.458 319.62 623.97 319.952C623.487 320.278 623.116 320.705 622.855 321.23C622.595 321.756 622.464 322.319 622.464 322.92V323.886C622.464 324.71 622.607 325.409 622.891 325.982C623.179 326.55 623.58 326.983 624.091 327.281C624.602 327.575 625.196 327.722 625.874 327.722C626.314 327.722 626.712 327.66 627.067 327.537C627.427 327.409 627.737 327.22 627.997 326.969C628.258 326.713 628.459 326.396 628.601 326.017L630.22 326.472C630.05 327.021 629.763 327.504 629.361 327.92C628.958 328.332 628.461 328.654 627.869 328.886C627.277 329.114 626.612 329.227 625.874 329.227Z" fill="white"/>
<path d="M326.947 417.241C325.769 417.96 325.397 419.499 326.116 420.677C326.835 421.856 328.374 422.228 329.553 421.509L326.947 417.241ZM676.721 421.851C678.088 421.66 679.042 420.397 678.851 419.029L675.74 396.745C675.55 395.378 674.286 394.424 672.919 394.615C671.551 394.806 670.598 396.069 670.788 397.437L673.553 417.245L653.745 420.009C652.378 420.2 651.424 421.464 651.615 422.831C651.806 424.199 653.069 425.152 654.437 424.961L676.721 421.851ZM329.553 421.509C361.359 402.094 416.916 378.733 479.956 371.923C542.961 365.117 613.26 374.855 674.869 421.37L677.881 417.38C614.99 369.895 543.31 360.05 479.419 366.952C415.563 373.85 359.308 397.489 326.947 417.241L329.553 421.509Z" fill="url(#paint4_linear_108_2)"/>
<path d="M440.636 426.841C440.551 426.121 440.205 425.562 439.599 425.165C438.993 424.767 438.249 424.568 437.369 424.568C436.725 424.568 436.161 424.672 435.678 424.881C435.2 425.089 434.826 425.375 434.556 425.74C434.291 426.105 434.159 426.519 434.159 426.983C434.159 427.371 434.251 427.705 434.436 427.984C434.625 428.259 434.866 428.489 435.16 428.673C435.454 428.853 435.761 429.002 436.083 429.121C436.405 429.234 436.701 429.327 436.971 429.398L438.448 429.795C438.827 429.895 439.249 430.032 439.713 430.207C440.181 430.383 440.629 430.622 441.055 430.925C441.486 431.223 441.841 431.607 442.12 432.075C442.4 432.544 442.539 433.119 442.539 433.801C442.539 434.587 442.333 435.297 441.921 435.932C441.514 436.566 440.918 437.071 440.132 437.445C439.35 437.819 438.401 438.006 437.284 438.006C436.242 438.006 435.34 437.838 434.578 437.501C433.82 437.165 433.223 436.696 432.788 436.095C432.357 435.494 432.113 434.795 432.056 434H433.874C433.922 434.549 434.106 435.004 434.428 435.364C434.755 435.719 435.167 435.984 435.664 436.159C436.166 436.33 436.706 436.415 437.284 436.415C437.956 436.415 438.56 436.306 439.095 436.088C439.63 435.866 440.053 435.558 440.366 435.165C440.678 434.767 440.835 434.303 440.835 433.773C440.835 433.29 440.7 432.897 440.43 432.594C440.16 432.291 439.805 432.045 439.365 431.855C438.924 431.666 438.448 431.5 437.937 431.358L436.147 430.847C435.011 430.52 434.111 430.054 433.448 429.447C432.785 428.841 432.454 428.048 432.454 427.068C432.454 426.254 432.674 425.544 433.115 424.938C433.56 424.327 434.156 423.853 434.904 423.517C435.657 423.176 436.498 423.006 437.426 423.006C438.363 423.006 439.196 423.174 439.926 423.51C440.655 423.841 441.232 424.296 441.659 424.874C442.089 425.451 442.317 426.107 442.34 426.841H440.636ZM449.952 426.841V428.261H444.299V426.841H449.952ZM445.947 424.227H447.623V434.625C447.623 435.098 447.691 435.454 447.829 435.69C447.971 435.922 448.151 436.079 448.368 436.159C448.591 436.235 448.825 436.273 449.072 436.273C449.256 436.273 449.408 436.263 449.526 436.244C449.644 436.221 449.739 436.202 449.81 436.188L450.151 437.693C450.037 437.736 449.879 437.778 449.675 437.821C449.472 437.868 449.214 437.892 448.901 437.892C448.428 437.892 447.964 437.79 447.509 437.587C447.059 437.383 446.685 437.073 446.387 436.656C446.093 436.24 445.947 435.714 445.947 435.08V424.227ZM452.474 437.75V426.841H454.093V428.489H454.206C454.405 427.949 454.765 427.511 455.286 427.175C455.807 426.839 456.394 426.67 457.047 426.67C457.171 426.67 457.324 426.673 457.509 426.678C457.694 426.682 457.833 426.689 457.928 426.699V428.403C457.871 428.389 457.741 428.368 457.537 428.339C457.339 428.306 457.128 428.29 456.905 428.29C456.375 428.29 455.902 428.401 455.485 428.624C455.073 428.841 454.746 429.144 454.505 429.533C454.268 429.916 454.15 430.354 454.15 430.847V437.75H452.474ZM463.125 438.006C462.434 438.006 461.807 437.875 461.243 437.615C460.68 437.35 460.232 436.969 459.901 436.472C459.569 435.97 459.404 435.364 459.404 434.653C459.404 434.028 459.527 433.522 459.773 433.134C460.019 432.741 460.348 432.433 460.76 432.21C461.172 431.988 461.627 431.822 462.124 431.713C462.626 431.599 463.13 431.509 463.637 431.443C464.299 431.358 464.837 431.294 465.249 431.251C465.665 431.204 465.968 431.126 466.158 431.017C466.352 430.908 466.449 430.719 466.449 430.449V430.392C466.449 429.691 466.257 429.147 465.874 428.759C465.495 428.37 464.92 428.176 464.148 428.176C463.348 428.176 462.72 428.351 462.266 428.702C461.811 429.052 461.492 429.426 461.307 429.824L459.716 429.256C460 428.593 460.379 428.077 460.852 427.707C461.331 427.333 461.852 427.073 462.415 426.926C462.983 426.775 463.542 426.699 464.091 426.699C464.441 426.699 464.844 426.741 465.298 426.827C465.758 426.907 466.2 427.075 466.627 427.331C467.057 427.587 467.415 427.973 467.699 428.489C467.983 429.005 468.125 429.696 468.125 430.562V437.75H466.449V436.273H466.364C466.25 436.509 466.061 436.763 465.796 437.033C465.53 437.303 465.178 437.532 464.737 437.722C464.297 437.911 463.76 438.006 463.125 438.006ZM463.381 436.5C464.044 436.5 464.602 436.37 465.057 436.109C465.516 435.849 465.862 435.513 466.094 435.101C466.331 434.689 466.449 434.256 466.449 433.801V432.267C466.378 432.352 466.222 432.43 465.98 432.501C465.744 432.568 465.469 432.627 465.156 432.679C464.849 432.726 464.548 432.769 464.254 432.807C463.966 432.84 463.731 432.868 463.551 432.892C463.116 432.949 462.709 433.041 462.33 433.169C461.956 433.292 461.653 433.479 461.421 433.73C461.193 433.976 461.08 434.312 461.08 434.739C461.08 435.321 461.295 435.761 461.726 436.06C462.162 436.353 462.713 436.5 463.381 436.5ZM471.184 437.75V426.841H472.861V437.75H471.184ZM472.037 425.023C471.71 425.023 471.428 424.911 471.192 424.689C470.96 424.466 470.844 424.199 470.844 423.886C470.844 423.574 470.96 423.306 471.192 423.084C471.428 422.861 471.71 422.75 472.037 422.75C472.363 422.75 472.643 422.861 472.875 423.084C473.112 423.306 473.23 423.574 473.23 423.886C473.23 424.199 473.112 424.466 472.875 424.689C472.643 424.911 472.363 425.023 472.037 425.023ZM480.334 442.068C479.524 442.068 478.828 441.964 478.246 441.756C477.664 441.552 477.178 441.282 476.79 440.946C476.406 440.615 476.101 440.259 475.874 439.881L477.209 438.943C477.36 439.142 477.552 439.369 477.784 439.625C478.016 439.885 478.334 440.11 478.736 440.3C479.143 440.494 479.676 440.591 480.334 440.591C481.215 440.591 481.941 440.378 482.514 439.952C483.087 439.526 483.374 438.858 483.374 437.949V435.733H483.232C483.109 435.932 482.933 436.178 482.706 436.472C482.484 436.76 482.162 437.018 481.74 437.246C481.324 437.468 480.76 437.58 480.05 437.58C479.169 437.58 478.378 437.371 477.678 436.955C476.982 436.538 476.43 435.932 476.023 435.136C475.62 434.341 475.419 433.375 475.419 432.239C475.419 431.121 475.616 430.148 476.009 429.32C476.402 428.486 476.949 427.842 477.649 427.388C478.35 426.929 479.16 426.699 480.078 426.699C480.789 426.699 481.352 426.817 481.769 427.054C482.19 427.286 482.512 427.551 482.735 427.849C482.962 428.143 483.137 428.384 483.26 428.574H483.431V426.841H485.05V438.062C485.05 439 484.837 439.762 484.411 440.349C483.989 440.941 483.421 441.375 482.706 441.649C481.996 441.929 481.205 442.068 480.334 442.068ZM480.277 436.074C480.95 436.074 481.518 435.92 481.982 435.612C482.446 435.304 482.798 434.862 483.04 434.284C483.281 433.706 483.402 433.015 483.402 432.21C483.402 431.424 483.284 430.731 483.047 430.129C482.81 429.528 482.46 429.057 481.996 428.716C481.532 428.375 480.959 428.205 480.277 428.205C479.567 428.205 478.975 428.384 478.502 428.744C478.033 429.104 477.68 429.587 477.443 430.193C477.211 430.799 477.095 431.472 477.095 432.21C477.095 432.968 477.214 433.638 477.45 434.22C477.692 434.798 478.047 435.252 478.516 435.584C478.989 435.911 479.576 436.074 480.277 436.074ZM489.794 431.188V437.75H488.118V423.205H489.794V428.545H489.936C490.192 427.982 490.575 427.535 491.087 427.203C491.603 426.867 492.289 426.699 493.146 426.699C493.89 426.699 494.541 426.848 495.1 427.146C495.658 427.44 496.092 427.892 496.399 428.503C496.712 429.109 496.868 429.881 496.868 430.818V437.75H495.192V430.932C495.192 430.065 494.967 429.395 494.517 428.922C494.072 428.444 493.454 428.205 492.664 428.205C492.114 428.205 491.622 428.321 491.186 428.553C490.755 428.785 490.414 429.123 490.164 429.568C489.917 430.013 489.794 430.553 489.794 431.188ZM504.679 426.841V428.261H499.025V426.841H504.679ZM500.673 424.227H502.349V434.625C502.349 435.098 502.418 435.454 502.555 435.69C502.697 435.922 502.877 436.079 503.095 436.159C503.318 436.235 503.552 436.273 503.798 436.273C503.983 436.273 504.134 436.263 504.253 436.244C504.371 436.221 504.466 436.202 504.537 436.188L504.878 437.693C504.764 437.736 504.605 437.778 504.402 437.821C504.198 437.868 503.94 437.892 503.628 437.892C503.154 437.892 502.69 437.79 502.236 437.587C501.786 437.383 501.412 437.073 501.113 436.656C500.82 436.24 500.673 435.714 500.673 435.08V424.227ZM517.569 426.841V428.261H511.916V426.841H517.569ZM513.564 424.227H515.24V434.625C515.24 435.098 515.309 435.454 515.446 435.69C515.588 435.922 515.768 436.079 515.986 436.159C516.208 436.235 516.443 436.273 516.689 436.273C516.873 436.273 517.025 436.263 517.143 436.244C517.262 436.221 517.356 436.202 517.427 436.188L517.768 437.693C517.655 437.736 517.496 437.778 517.292 437.821C517.089 437.868 516.831 437.892 516.518 437.892C516.045 437.892 515.581 437.79 515.126 437.587C514.676 437.383 514.302 437.073 514.004 436.656C513.711 436.24 513.564 435.714 513.564 435.08V424.227ZM524.405 437.977C523.421 437.977 522.556 437.743 521.813 437.274C521.074 436.805 520.497 436.15 520.08 435.307C519.668 434.464 519.462 433.479 519.462 432.352C519.462 431.216 519.668 430.224 520.08 429.376C520.497 428.529 521.074 427.871 521.813 427.402C522.556 426.933 523.421 426.699 524.405 426.699C525.39 426.699 526.252 426.933 526.991 427.402C527.734 427.871 528.312 428.529 528.724 429.376C529.14 430.224 529.349 431.216 529.349 432.352C529.349 433.479 529.14 434.464 528.724 435.307C528.312 436.15 527.734 436.805 526.991 437.274C526.252 437.743 525.39 437.977 524.405 437.977ZM524.405 436.472C525.153 436.472 525.769 436.28 526.252 435.896C526.735 435.513 527.092 435.009 527.324 434.384C527.556 433.759 527.672 433.081 527.672 432.352C527.672 431.623 527.556 430.944 527.324 430.314C527.092 429.684 526.735 429.175 526.252 428.787C525.769 428.399 525.153 428.205 524.405 428.205C523.657 428.205 523.042 428.399 522.559 428.787C522.076 429.175 521.718 429.684 521.486 430.314C521.254 430.944 521.138 431.623 521.138 432.352C521.138 433.081 521.254 433.759 521.486 434.384C521.718 435.009 522.076 435.513 522.559 435.896C523.042 436.28 523.657 436.472 524.405 436.472ZM542.276 426.841V428.261H536.623V426.841H542.276ZM538.271 424.227H539.947V434.625C539.947 435.098 540.016 435.454 540.153 435.69C540.295 435.922 540.475 436.079 540.693 436.159C540.915 436.235 541.15 436.273 541.396 436.273C541.58 436.273 541.732 436.263 541.85 436.244C541.969 436.221 542.063 436.202 542.134 436.188L542.475 437.693C542.362 437.736 542.203 437.778 541.999 437.821C541.796 437.868 541.538 437.892 541.225 437.892C540.752 437.892 540.288 437.79 539.833 437.587C539.383 437.383 539.009 437.073 538.711 436.656C538.418 436.24 538.271 435.714 538.271 435.08V424.227ZM546.708 431.188V437.75H545.032V423.205H546.708V428.545H546.85C547.106 427.982 547.49 427.535 548.001 427.203C548.517 426.867 549.204 426.699 550.061 426.699C550.804 426.699 551.455 426.848 552.014 427.146C552.572 427.44 553.006 427.892 553.313 428.503C553.626 429.109 553.782 429.881 553.782 430.818V437.75H552.106V430.932C552.106 430.065 551.881 429.395 551.431 428.922C550.986 428.444 550.368 428.205 549.578 428.205C549.028 428.205 548.536 428.321 548.1 428.553C547.669 428.785 547.329 429.123 547.078 429.568C546.831 430.013 546.708 430.553 546.708 431.188ZM561.422 437.977C560.371 437.977 559.465 437.745 558.702 437.281C557.945 436.812 557.36 436.159 556.948 435.321C556.541 434.478 556.337 433.498 556.337 432.381C556.337 431.263 556.541 430.278 556.948 429.426C557.36 428.569 557.933 427.902 558.667 427.423C559.405 426.94 560.267 426.699 561.252 426.699C561.82 426.699 562.381 426.794 562.935 426.983C563.489 427.172 563.993 427.48 564.448 427.906C564.903 428.328 565.265 428.886 565.535 429.582C565.805 430.278 565.939 431.135 565.939 432.153V432.864H557.53V431.415H564.235C564.235 430.799 564.112 430.25 563.866 429.767C563.624 429.284 563.278 428.903 562.829 428.624C562.384 428.344 561.858 428.205 561.252 428.205C560.584 428.205 560.007 428.37 559.519 428.702C559.036 429.028 558.664 429.455 558.404 429.98C558.144 430.506 558.013 431.069 558.013 431.67V432.636C558.013 433.46 558.155 434.159 558.439 434.732C558.728 435.3 559.128 435.733 559.64 436.031C560.151 436.325 560.745 436.472 561.422 436.472C561.863 436.472 562.26 436.41 562.616 436.287C562.975 436.159 563.286 435.97 563.546 435.719C563.806 435.463 564.008 435.146 564.15 434.767L565.769 435.222C565.599 435.771 565.312 436.254 564.91 436.67C564.507 437.082 564.01 437.404 563.418 437.636C562.826 437.864 562.161 437.977 561.422 437.977ZM465.218 461.75V450.841H466.837V452.489H466.951C467.15 451.949 467.509 451.511 468.03 451.175C468.551 450.839 469.138 450.67 469.792 450.67C469.915 450.67 470.069 450.673 470.253 450.678C470.438 450.682 470.578 450.689 470.672 450.699V452.403C470.615 452.389 470.485 452.368 470.282 452.339C470.083 452.306 469.872 452.29 469.65 452.29C469.119 452.29 468.646 452.401 468.229 452.624C467.817 452.841 467.49 453.144 467.249 453.533C467.012 453.916 466.894 454.354 466.894 454.847V461.75H465.218ZM476.901 461.977C475.85 461.977 474.943 461.745 474.181 461.281C473.423 460.812 472.838 460.159 472.426 459.321C472.019 458.478 471.816 457.498 471.816 456.381C471.816 455.263 472.019 454.278 472.426 453.426C472.838 452.569 473.411 451.902 474.145 451.423C474.884 450.94 475.746 450.699 476.73 450.699C477.299 450.699 477.86 450.794 478.414 450.983C478.968 451.172 479.472 451.48 479.926 451.906C480.381 452.328 480.743 452.886 481.013 453.582C481.283 454.278 481.418 455.135 481.418 456.153V456.864H473.009V455.415H479.713C479.713 454.799 479.59 454.25 479.344 453.767C479.103 453.284 478.757 452.903 478.307 452.624C477.862 452.344 477.337 452.205 476.73 452.205C476.063 452.205 475.485 452.37 474.998 452.702C474.515 453.028 474.143 453.455 473.882 453.98C473.622 454.506 473.492 455.069 473.492 455.67V456.636C473.492 457.46 473.634 458.159 473.918 458.732C474.207 459.3 474.607 459.733 475.118 460.031C475.63 460.325 476.224 460.472 476.901 460.472C477.341 460.472 477.739 460.41 478.094 460.287C478.454 460.159 478.764 459.97 479.025 459.719C479.285 459.463 479.486 459.146 479.628 458.767L481.248 459.222C481.077 459.771 480.791 460.254 480.388 460.67C479.986 461.082 479.489 461.404 478.897 461.636C478.305 461.864 477.64 461.977 476.901 461.977ZM488.4 461.977C487.377 461.977 486.496 461.736 485.757 461.253C485.019 460.77 484.451 460.105 484.053 459.257C483.655 458.41 483.456 457.441 483.456 456.352C483.456 455.244 483.66 454.267 484.067 453.419C484.479 452.567 485.052 451.902 485.786 451.423C486.525 450.94 487.386 450.699 488.371 450.699C489.138 450.699 489.829 450.841 490.445 451.125C491.06 451.409 491.565 451.807 491.958 452.318C492.351 452.83 492.595 453.426 492.689 454.108H491.013C490.885 453.611 490.601 453.17 490.161 452.787C489.725 452.399 489.138 452.205 488.4 452.205C487.746 452.205 487.173 452.375 486.681 452.716C486.193 453.052 485.812 453.528 485.537 454.143C485.267 454.754 485.132 455.472 485.132 456.295C485.132 457.138 485.265 457.872 485.53 458.497C485.8 459.122 486.179 459.607 486.667 459.953C487.159 460.299 487.737 460.472 488.4 460.472C488.835 460.472 489.23 460.396 489.586 460.244C489.941 460.093 490.241 459.875 490.488 459.591C490.734 459.307 490.909 458.966 491.013 458.568H492.689C492.595 459.212 492.36 459.792 491.986 460.308C491.617 460.82 491.127 461.227 490.516 461.53C489.91 461.828 489.204 461.977 488.4 461.977ZM499.713 461.977C498.662 461.977 497.756 461.745 496.993 461.281C496.236 460.812 495.651 460.159 495.239 459.321C494.832 458.478 494.628 457.498 494.628 456.381C494.628 455.263 494.832 454.278 495.239 453.426C495.651 452.569 496.224 451.902 496.958 451.423C497.696 450.94 498.558 450.699 499.543 450.699C500.111 450.699 500.672 450.794 501.226 450.983C501.78 451.172 502.284 451.48 502.739 451.906C503.194 452.328 503.556 452.886 503.826 453.582C504.096 454.278 504.23 455.135 504.23 456.153V456.864H495.821V455.415H502.526C502.526 454.799 502.403 454.25 502.157 453.767C501.915 453.284 501.569 452.903 501.12 452.624C500.675 452.344 500.149 452.205 499.543 452.205C498.875 452.205 498.298 452.37 497.81 452.702C497.327 453.028 496.955 453.455 496.695 453.98C496.435 454.506 496.304 455.069 496.304 455.67V456.636C496.304 457.46 496.446 458.159 496.73 458.732C497.019 459.3 497.419 459.733 497.931 460.031C498.442 460.325 499.036 460.472 499.713 460.472C500.154 460.472 500.551 460.41 500.907 460.287C501.266 460.159 501.577 459.97 501.837 459.719C502.097 459.463 502.299 459.146 502.441 458.767L504.06 459.222C503.89 459.771 503.603 460.254 503.201 460.67C502.798 461.082 502.301 461.404 501.709 461.636C501.117 461.864 500.452 461.977 499.713 461.977ZM506.78 461.75V450.841H508.456V461.75H506.78ZM507.632 449.023C507.306 449.023 507.024 448.911 506.787 448.689C506.555 448.466 506.439 448.199 506.439 447.886C506.439 447.574 506.555 447.306 506.787 447.084C507.024 446.861 507.306 446.75 507.632 446.75C507.959 446.75 508.239 446.861 508.471 447.084C508.707 447.306 508.826 447.574 508.826 447.886C508.826 448.199 508.707 448.466 508.471 448.689C508.239 448.911 507.959 449.023 507.632 449.023ZM520.447 450.841L516.413 461.75H514.708L510.674 450.841H512.492L515.504 459.534H515.617L518.629 450.841H520.447ZM526.842 461.977C525.791 461.977 524.884 461.745 524.122 461.281C523.365 460.812 522.78 460.159 522.368 459.321C521.961 458.478 521.757 457.498 521.757 456.381C521.757 455.263 521.961 454.278 522.368 453.426C522.78 452.569 523.353 451.902 524.087 451.423C524.825 450.94 525.687 450.699 526.672 450.699C527.24 450.699 527.801 450.794 528.355 450.983C528.909 451.172 529.413 451.48 529.868 451.906C530.322 452.328 530.685 452.886 530.955 453.582C531.224 454.278 531.359 455.135 531.359 456.153V456.864H522.95V455.415H529.655C529.655 454.799 529.532 454.25 529.286 453.767C529.044 453.284 528.698 452.903 528.249 452.624C527.804 452.344 527.278 452.205 526.672 452.205C526.004 452.205 525.427 452.37 524.939 452.702C524.456 453.028 524.084 453.455 523.824 453.98C523.563 454.506 523.433 455.069 523.433 455.67V456.636C523.433 457.46 523.575 458.159 523.859 458.732C524.148 459.3 524.548 459.733 525.06 460.031C525.571 460.325 526.165 460.472 526.842 460.472C527.283 460.472 527.68 460.41 528.036 460.287C528.395 460.159 528.705 459.97 528.966 459.719C529.226 459.463 529.428 459.146 529.57 458.767L531.189 459.222C531.018 459.771 530.732 460.254 530.33 460.67C529.927 461.082 529.43 461.404 528.838 461.636C528.246 461.864 527.581 461.977 526.842 461.977ZM533.909 461.75V450.841H535.528V452.489H535.642C535.841 451.949 536.201 451.511 536.722 451.175C537.242 450.839 537.83 450.67 538.483 450.67C538.606 450.67 538.76 450.673 538.945 450.678C539.129 450.682 539.269 450.689 539.364 450.699V452.403C539.307 452.389 539.177 452.368 538.973 452.339C538.774 452.306 538.563 452.29 538.341 452.29C537.811 452.29 537.337 452.401 536.92 452.624C536.509 452.841 536.182 453.144 535.94 453.533C535.704 453.916 535.585 454.354 535.585 454.847V461.75H533.909Z" fill="white"/>
<defs>
<linearGradient id="paint0_linear_108_2" x1="151.375" y1="312.994" x2="151.375" y2="525.756" gradientUnits="userSpaceOnUse">
<stop stop-color="#90CAF9"/>
<stop offset="0.5" stop-color="#42A5F5"/>
<stop offset="1" stop-color="#0D47A1"/>
</linearGradient>
<linearGradient id="paint1_linear_108_2" x1="151.375" y1="333.815" x2="151.375" y2="484.115" gradientUnits="userSpaceOnUse">
<stop stop-color="#90CAF9"/>
<stop offset="0.5" stop-color="#42A5F5"/>
<stop offset="1" stop-color="#0D47A1"/>
</linearGradient>
<linearGradient id="paint2_linear_108_2" x1="852.625" y1="312.994" x2="852.625" y2="525.756" gradientUnits="userSpaceOnUse">
<stop stop-color="#90CAF9"/>
<stop offset="0.5" stop-color="#42A5F5"/>
<stop offset="1" stop-color="#0D47A1"/>
</linearGradient>
<linearGradient id="paint3_linear_108_2" x1="852.625" y1="333.815" x2="852.625" y2="484.115" gradientUnits="userSpaceOnUse">
<stop stop-color="#90CAF9"/>
<stop offset="0.5" stop-color="#42A5F5"/>
<stop offset="1" stop-color="#0D47A1"/>
</linearGradient>
<linearGradient id="paint4_linear_108_2" x1="328.25" y1="393.424" x2="676.375" y2="393.424" gradientUnits="userSpaceOnUse">
<stop stop-color="#0D47A1"/>
<stop offset="0.5" stop-color="#42A5F5"/>
<stop offset="1" stop-color="#90CAF9"/>
</linearGradient>
<clipPath id="clip0_108_2">
<rect width="301.25" height="301.25" fill="white" transform="translate(0.75 268.75)"/>
</clipPath>
<clipPath id="clip1_108_2">
<rect width="301.25" height="301.25" fill="white" transform="translate(702 268.75)"/>
</clipPath>
<clipPath id="clip2_108_2">
<rect width="188.75" height="188.75" fill="white" transform="translate(412)"/>
</clipPath>
<clipPath id="clip3_108_2">
<rect width="188.75" height="188.75" fill="white" transform="translate(412)"/>
</clipPath>
</defs>
</svg>
