<?xml version="1.0" encoding="UTF-8"?>
<svg version="1.1" xmlns="http://www.w3.org/2000/svg" width="100" height="100">
<path d="M0 0 C4.29841143 2.3759723 6.96875001 4.79687502 9.6875 8.875 C9.6875 9.535 9.6875 10.195 9.6875 10.875 C10.63109375 10.87886719 10.63109375 10.87886719 11.59375 10.8828125 C18.50910415 11.1952532 22.88490001 12.80681845 27.6875 17.875 C32.16750992 23.67117103 32.3603691 29.7712672 31.6875 36.875 C31.38816621 38.21637548 31.0671057 39.55409561 30.6875 40.875 C31.615625 41.41125 32.54375 41.9475 33.5 42.5 C37.14070214 45.21268003 38.28114714 46.5778107 39.6875 50.875 C40.31818178 56.09953675 40.34273679 60.40071723 38.1875 65.25 C31.98590036 71.76167963 24.27793392 74.59694419 15.6875 76.875 C14.6975 76.875 13.7075 76.875 12.6875 76.875 C12.625625 77.6175 12.56375 78.36 12.5 79.125 C11.4194279 82.78232095 9.83538003 83.80026089 6.6875 85.875 C1.44140425 88.71072743 -3.98655143 88.26265809 -9.6875 87.3125 C-12.28339775 86.61537734 -12.28339775 86.61537734 -14.3125 87.875 C-20.67367739 88.42337736 -24.9849741 87.46342549 -30.3125 83.875 C-32.86040426 81.24747373 -33.3125 80.56784426 -33.3125 76.875 C-34.55 76.648125 -35.7875 76.42125 -37.0625 76.1875 C-45.8542785 74.198221 -54.26433829 71.70835438 -59.3125 63.875 C-61.50138656 59.49722687 -61.10442573 53.2722969 -59.59375 48.69921875 C-57.5554146 44.86090169 -55.2095853 42.71529028 -51.3125 40.875 C-51.47105469 40.32328125 -51.62960938 39.7715625 -51.79296875 39.203125 C-53.27922546 32.54290695 -53.20195159 25.63125149 -49.6953125 19.66015625 C-45.7421219 14.55674352 -41.51412468 11.84207056 -35.125 10.9375 C-31.6056072 10.4825192 -31.6056072 10.4825192 -28.91796875 8.3828125 C-28.17334935 7.1566901 -27.43385632 5.92744148 -26.69921875 4.6953125 C-20.33230874 -3.66237783 -8.78615702 -4.00909091 0 0 Z M-21.87109375 7.234375 C-26.72635159 12.8244048 -27.78170955 17.65105267 -27.3125 24.875 C-26.73674162 28.92868421 -25.94961139 32.92778543 -25.125 36.9375 C-24.89868896 38.04279053 -24.67237793 39.14808105 -24.43920898 40.28686523 C-20.84429093 57.91746095 -20.84429093 57.91746095 -11.3125 72.875 C-7.07114529 71.36023046 -5.52622942 68.67970539 -3.3125 64.875 C0.59216261 55.95838239 2.56509056 46.43595728 4.5 36.9375 C4.71906006 35.87168701 4.93812012 34.80587402 5.16381836 33.70776367 C6.77678256 25.42580036 8.15501493 18.27081618 3.88671875 10.6328125 C0.78681567 6.08898062 -3.09375314 4.20744601 -8.3125 2.875 C-13.40469149 2.875 -17.93385225 3.80038993 -21.87109375 7.234375 Z M11.6875 15.875 C11.60113281 16.91914063 11.51476562 17.96328125 11.42578125 19.0390625 C10.60398057 27.9667595 9.25637193 36.63311113 7.25 45.375 C7.04479736 46.26912598 6.83959473 47.16325195 6.62817383 48.08447266 C5.20575822 54.08676614 3.52108746 59.98601364 1.6875 65.875 C12.15294871 57.37182292 20.63841581 46.97316838 26.6875 34.875 C27.09149154 29.62310993 26.57740343 26.30618526 23.6875 21.875 C19.72718487 17.91468487 17.16524444 16.58550242 11.6875 15.875 Z M-42.84765625 20.3046875 C-46.0854129 24.09937605 -47.8864852 27.60423281 -47.76953125 32.67578125 C-45.17960254 45.13842966 -32.03640125 58.31196569 -22.3125 65.875 C-22.4993335 65.26841553 -22.68616699 64.66183105 -22.87866211 64.03686523 C-27.72129863 48.1336408 -31.04245514 32.46140669 -32.3125 15.875 C-36.27457293 15.875 -39.98293116 17.63677558 -42.84765625 20.3046875 Z M-51.9375 48.25 C-54.68006648 51.28125769 -55.22214316 52.09190735 -55.6875 56.125 C-55.31713847 59.8286153 -54.74366839 61.75228691 -52.17578125 64.46484375 C-45.11892348 69.8055684 -34.96195129 72.54848008 -26.3125 73.875 C-25.3225 73.545 -24.3325 73.215 -23.3125 72.875 C-24.05113281 72.18277344 -24.78976563 71.49054688 -25.55078125 70.77734375 C-32.0784186 64.523813 -37.66941677 58.09722152 -42.74536133 50.60131836 C-43.86727064 48.9773849 -45.08283097 47.41894121 -46.3125 45.875 C-49.53172387 45.53954334 -49.53172387 45.53954334 -51.9375 48.25 Z M25.6875 45.875 C24.86958984 47.00035156 24.86958984 47.00035156 24.03515625 48.1484375 C19.52175135 54.27432381 14.86869122 60.06727048 9.70703125 65.671875 C7.26815777 68.33246425 4.96851858 71.07891271 2.6875 73.875 C9.40623382 73.04939288 15.70386014 71.39030201 22.0625 69.125 C22.73990234 68.89731934 23.41730469 68.66963867 24.11523438 68.43505859 C29.14169349 66.56819481 31.6556296 64.31637372 34.6875 59.875 C35.38814191 55.51545031 34.97599033 53.45198066 33 49.5 C30.40132075 46.55014787 29.42382911 46.40787613 25.6875 45.875 Z M-26.3125 78.875 C-22.98574598 82.20175402 -21.86827267 82.59607514 -17.3125 82.875 C-14.99269054 82.05157468 -14.99269054 82.05157468 -13.3125 80.875 C-13.3125 80.545 -13.3125 80.215 -13.3125 79.875 C-17.6025 79.545 -21.8925 79.215 -26.3125 78.875 Z M-2.5 79.375 C-3.85158203 79.51421875 -3.85158203 79.51421875 -5.23046875 79.65625 C-5.91753906 79.7284375 -6.60460938 79.800625 -7.3125 79.875 C-6.03462777 81.45569743 -6.03462777 81.45569743 -4.3125 82.875 C-0.6891682 82.74559529 1.75735031 82.62512072 4.625 80.3125 C4.975625 79.838125 5.32625 79.36375 5.6875 78.875 C2.90753893 78.875 0.26257433 79.08797929 -2.5 79.375 Z " fill="#3E8CDA" transform="translate(60.3125,7.125)"/>
<path d="M0 0 C0.33 0.99 0.66 1.98 1 3 C0.67 3.66 0.34 4.32 0 5 C-1.6396875 5.4021875 -1.6396875 5.4021875 -3.3125 5.8125 C-7.61143166 7.19690172 -8.88961472 8.03247567 -11 12 C-11.39895179 19.0971423 -10.36168251 25.61147879 -9 32.5625 C-8.80921875 33.57119141 -8.6184375 34.57988281 -8.421875 35.61914062 C-7.95518789 38.08091515 -7.48111337 40.54101164 -7 43 C-8.32 43.66 -9.64 44.32 -11 45 C-13.71749881 41.03412638 -14.86389269 37.23733353 -15.6875 32.5625 C-15.87421265 31.51666748 -15.87421265 31.51666748 -16.06469727 30.44970703 C-17.38927017 22.45156826 -18.76829455 13.94465707 -15.375 6.375 C-10.41023443 1.41023443 -7.14538686 -0.57163095 0 0 Z " fill="#69B7F6" transform="translate(52,12)"/>
<path d="M0 0 C1.890625 1.01953125 1.890625 1.01953125 4 3 C4.77138685 5.63365288 5.32385402 8.00278032 5.75 10.6875 C5.87503906 11.38939453 6.00007813 12.09128906 6.12890625 12.81445312 C6.43417555 14.54039881 6.71910154 16.26992084 7 18 C5.02 18.99 5.02 18.99 3 20 C-1.08569241 14.42860126 -2 7.76709919 -2 1 C-1.34 0.67 -0.68 0.34 0 0 Z " fill="#2776CB" transform="translate(38,37)"/>
<path d="M0 0 C2.475 0.99 2.475 0.99 5 2 C4.34 3.32 3.68 4.64 3 6 C1.68 5.34 0.36 4.68 -1 4 C-0.67 2.68 -0.34 1.36 0 0 Z " fill="#1250A8" transform="translate(40,51)"/>
</svg>
