<?xml version="1.0" encoding="UTF-8"?>
<svg version="1.1" xmlns="http://www.w3.org/2000/svg" width="100" height="82">
<path d="M0 0 C7.19004567 5.13915371 10.81777798 10.93263992 12.54296875 19.55859375 C24.09296875 19.55859375 35.64296875 19.55859375 47.54296875 19.55859375 C47.54296875 36.03928012 43.82454798 49.17938834 32.29296875 61.37109375 C20.49873895 72.38702412 6.43570532 77.9940598 -9.71875 77.7734375 C-22.53111498 76.76818775 -33.2878454 71.78859547 -42.12109375 62.5234375 C-51.43042673 50.70774564 -53.60141107 38.25377693 -52.45703125 23.55859375 C-50.73722735 14.47152181 -44.4702715 7.62759263 -37.4453125 1.92578125 C-26.08951605 -5.76759809 -11.95917312 -7.01579472 0 0 Z M-40.45703125 9.55859375 C-47.89753813 18.39803891 -49.2864819 27.28239743 -48.65234375 38.59912109 C-47.83294372 46.81975193 -43.81038151 53.4828637 -38.45703125 59.55859375 C-37.93238281 60.17605469 -37.40773438 60.79351562 -36.8671875 61.4296875 C-29.80394937 69.15770099 -20.64075221 72.69389871 -10.38671875 73.77734375 C3.69529669 74.40090163 16.22480829 69.31699559 26.79296875 60.30859375 C34.29054338 53.20374922 39.33945923 45.37580034 42.54296875 35.55859375 C42.84074219 34.67300781 42.84074219 34.67300781 43.14453125 33.76953125 C43.74864459 30.4172945 43.54296875 26.96482981 43.54296875 23.55859375 C33.64296875 23.55859375 23.74296875 23.55859375 13.54296875 23.55859375 C12.55296875 27.51859375 11.56296875 31.47859375 10.54296875 35.55859375 C6.50072783 42.17316979 2.85934495 45.50064167 -4.39453125 48.30859375 C-10.95553302 49.10386669 -16.63632379 48.89895692 -22.45703125 45.55859375 C-26.47355558 42.01998497 -29.11851999 37.81071983 -29.67578125 32.45703125 C-29.87859545 27.40357751 -29.35744702 23.85921024 -26.45703125 19.55859375 C-22.77712965 16.15468477 -20.19174507 14.68951555 -15.14453125 14.30859375 C-10.11152449 14.64981455 -6.94652896 15.87049634 -3.58203125 19.68359375 C-1.99726847 23.73354308 -1.6587562 27.27270925 -2.45703125 31.55859375 C-4.39453125 34.62109375 -4.39453125 34.62109375 -7.45703125 36.55859375 C-10.54573064 37.11574968 -13.38667004 37.24856256 -16.45703125 36.55859375 C-18.3720779 34.98458281 -19.34781679 33.77702266 -20.45703125 31.55859375 C-20.60078547 28.18036959 -20.53239473 25.7846842 -19.45703125 22.55859375 C-13.05703125 21.32782452 -13.05703125 21.32782452 -10.01953125 22.49609375 C-9.24609375 23.02203125 -9.24609375 23.02203125 -8.45703125 23.55859375 C-8.20703125 30.18359375 -8.20703125 30.18359375 -10.45703125 33.55859375 C-7.76647845 32.33851431 -7.76647845 32.33851431 -5.45703125 30.55859375 C-5.05664571 26.39458413 -5.01518797 24.23608679 -7.33203125 20.68359375 C-9.81605739 18.19956761 -10.73282326 17.64089011 -14.20703125 17.24609375 C-18.3429927 17.64378235 -20.26616862 18.93499559 -23.45703125 21.55859375 C-25.84416903 24.50273035 -26.41896014 26.20960853 -26.83203125 29.99609375 C-26.26372229 35.39502882 -24.52779248 38.83702492 -20.45703125 42.37109375 C-16.0141894 45.61066593 -12.87608997 45.91986433 -7.45703125 45.55859375 C-1.14755964 43.45543655 3.71299972 40.39820086 7.35546875 34.74609375 C10.25433705 26.96492095 9.82118983 21.11171119 6.54296875 13.55859375 C3.02513697 7.11860139 -1.67480821 3.30686848 -8.45703125 0.55859375 C-20.61419242 -2.33333701 -31.27807166 1.3450075 -40.45703125 9.55859375 Z " fill="#4A9BE4" transform="translate(52.45703125,4.44140625)"/>
<path d="M0 0 C0.99 0 1.98 0 3 0 C3.15855469 0.90621094 3.31710938 1.81242187 3.48046875 2.74609375 C4.93619221 10.3464179 6.64496464 16.57770102 11 23 C11.556875 23.886875 12.11375 24.77375 12.6875 25.6875 C18.92468223 31.92468223 27.19824763 35.67199358 35.8125 37.125 C37.27623047 37.37636719 37.27623047 37.37636719 38.76953125 37.6328125 C39.87361328 37.81457031 39.87361328 37.81457031 41 38 C40.67 39.32 40.34 40.64 40 42 C27.97983362 40.83955166 17.3351256 38.27650449 9 29 C2.81333135 20.96118939 -2.09993777 11.44940877 -1 1 C-0.67 0.67 -0.34 0.34 0 0 Z " fill="#54A7EE" transform="translate(6,35)"/>
<path d="M0 0 C1.17167955 0.65020672 2.33678669 1.31235649 3.49609375 1.984375 C9.53231083 5.26984038 15.03505152 7.04452078 21.93359375 7.734375 C21.60359375 9.054375 21.27359375 10.374375 20.93359375 11.734375 C10.83044539 10.75899901 2.10605987 9.29107135 -5.69140625 2.421875 C-6.14515625 1.865 -6.59890625 1.308125 -7.06640625 0.734375 C-4.19216716 -1.44072485 -3.40645399 -1.40597592 0 0 Z " fill="#1E65BC" transform="translate(25.06640625,65.265625)"/>
<path d="M0 0 C5.84085674 0.40281771 9.37735881 1.112779 14 5 C17.887221 9.62264119 18.59718229 13.15914326 19 19 C17.68 19 16.36 19 15 19 C14.84144531 18.39671875 14.68289062 17.7934375 14.51953125 17.171875 C13.00522596 11.98475192 11.87741666 8.81806296 7 6 C4.35741482 4.87027028 1.72686817 3.92436209 -1 3 C-0.67 2.01 -0.34 1.02 0 0 Z " fill="#6FBAF7" transform="translate(38,12)"/>
<path d="M0 0 C2.8125 0.0625 2.8125 0.0625 6 1 C8.32425567 5.02870983 9.42278105 8.3494085 9 13 C7.68 13 6.36 13 5 13 C4.80664062 12.39671875 4.61328125 11.7934375 4.4140625 11.171875 C4.15367188 10.37265625 3.89328125 9.5734375 3.625 8.75 C3.36976562 7.96109375 3.11453125 7.1721875 2.8515625 6.359375 C2.04826333 4.13372042 1.10288338 2.09068328 0 0 Z " fill="#46A2EF" transform="translate(48,18)"/>
<path d="M0 0 C2.08326131 -0.02709444 4.16662441 -0.04643873 6.25 -0.0625 C7.41015625 -0.07410156 8.5703125 -0.08570312 9.765625 -0.09765625 C12.40977128 -0.01782092 14.49826091 0.21356222 17 1 C16.67 2.32 16.34 3.64 16 5 C13.7077546 4.69177379 11.41621545 4.37829126 9.125 4.0625 C7.84882812 3.88847656 6.57265625 3.71445313 5.2578125 3.53515625 C2 3 2 3 0 2 C0 1.34 0 0.68 0 0 Z " fill="#124FA9" transform="translate(30,72)"/>
<path d="M0 0 C2.475 0.495 2.475 0.495 5 1 C5 2.65 5 4.3 5 6 C3.68 6 2.36 6 1 6 C0.67 4.02 0.34 2.04 0 0 Z " fill="#1F67BD" transform="translate(52,25)"/>
<path d="M0 0 C6.15234375 0.5859375 6.15234375 0.5859375 8 1 C8.33 1.66 8.66 2.32 9 3 C5.7 3 2.4 3 -1 3 C-0.67 2.01 -0.34 1.02 0 0 Z " fill="#84C5F9" transform="translate(38,12)"/>
</svg>
